<svg aria-hidden="true" style="position: absolute; width: 0; height: 0; overflow: hidden;" version="1.1" xmlns="http://www.w3.org/2000/svg" xmlns:xlink="http://www.w3.org/1999/xlink">
<defs>
<symbol id="icon-game" viewBox="0 0 32 32">
<path fill="#61a568" style="fill: var(--color1, #61a568)" d="M32 20.364v-17.455h-24c0-1.607-0.895-2.909-2-2.909h-6v2.909h4l1.502 18.73c-0.915 1.066-1.502 2.704-1.502 4.543 0 3.213 1.791 5.818 4 5.818h24v-2.909h-24c-1.105 0-2-1.302-2-2.909 0-0.010 0-0.020 0-0.029l26-5.789z"></path>
</symbol>
<symbol id="icon-chat" viewBox="0 0 32 32">
<path fill="#61a568" style="fill: var(--color1, #61a568)" d="M13.333 0c7.364 0 13.333 5.435 13.333 12.139s-5.97 12.139-13.333 12.139c-0.708 0-1.401-0.051-2.079-0.147-2.864 3.209-6.172 3.785-9.476 3.869v-0.785c1.785-0.98 3.222-2.765 3.222-4.804 0-0.285-0.020-0.564-0.056-0.837-3.015-2.225-4.944-5.625-4.944-9.434 0-6.704 5.97-12.139 13.333-12.139v-0.001zM27.667 27.209c0 1.748 1.009 3.278 2.556 4.118v0.673c-2.865-0.072-5.494-0.566-7.976-3.316-0.588 0.083-1.188 0.126-1.802 0.126-2.652 0-5.095-0.805-7.044-2.157 4.019-0.016 7.812-1.464 10.69-4.084 1.45-1.32 2.595-2.87 3.4-4.605 0.854-1.84 1.288-3.799 1.288-5.825 0-0.326-0.012-0.651-0.035-0.974 2.016 1.873 3.257 4.426 3.257 7.24 0 3.265-1.671 6.179-4.284 8.086-0.032 0.234-0.049 0.474-0.049 0.718z"></path>
</symbol>
<symbol id="icon-globe" viewBox="0 0 32 32">
<path fill="#61a568" style="fill: var(--color1, #61a568)" d="M16 0c-8.837 0-16 7.163-16 16s7.163 16 16 16c8.837 0 16-7.163 16-16s-7.163-16-16-16zM16 30c-1.967 0-3.84-0.407-5.538-1.139l7.286-8.197c0.163-0.183 0.253-0.419 0.253-0.664v-3c0-0.552-0.448-1-1-1-3.531 0-7.256-3.671-7.293-3.707-0.188-0.188-0.442-0.293-0.707-0.293h-4c-0.552 0-1 0.448-1 1v6c0 0.379 0.214 0.725 0.553 0.894l3.447 1.724v5.871c-3.627-2.53-6-6.732-6-11.489 0-2.147 0.484-4.181 1.348-6h3.652c0.265 0 0.52-0.105 0.707-0.293l4-4c0.188-0.188 0.293-0.442 0.293-0.707v-2.419c1.268-0.377 2.61-0.581 4-0.581 2.2 0 4.281 0.508 6.134 1.412-0.13 0.109-0.256 0.224-0.376 0.345-1.133 1.133-1.757 2.64-1.757 4.243s0.624 3.109 1.757 4.243c1.139 1.139 2.663 1.758 4.239 1.758 0.099 0 0.198-0.002 0.297-0.007 0.432 1.619 1.211 5.833-0.263 11.635-0.014 0.055-0.022 0.109-0.026 0.163-2.541 2.596-6.084 4.208-10.004 4.208h-0.002z"></path>
</symbol>
<symbol id="icon-headphone" viewBox="0 0 32 32">
<path fill="#61a568" style="fill: var(--color1, #61a568)" d="M32 15.859c0-8.759-7.163-15.859-16-15.859s-16 7.1-16 15.859c0 1.902 0.338 3.726 0.958 5.416-0.609 1.029-0.958 2.226-0.958 3.505 0 3.495 2.608 6.386 6 6.868v-13.735c-0.997 0.142-1.927 0.491-2.742 1.003-0.168-0.828-0.258-1.684-0.258-2.561 0-7.117 5.82-12.886 13-12.886s13 5.769 13 12.886c0 0.877-0.088 1.734-0.257 2.561-0.816-0.512-1.745-0.862-2.743-1.004v13.736c3.392-0.481 6-3.372 6-6.868 0-1.279-0.349-2.476-0.958-3.505 0.62-1.69 0.958-3.514 0.958-5.417v0.001z"></path>
</symbol>
<symbol id="icon-cup" viewBox="0 0 32 32">
<path fill="#61a568" style="fill: var(--color1, #61a568)" d="M26 4.521v-4.521h-20v4.521h-6v4.521c0 3.746 2.686 6.782 6 6.782 0.627 0 1.232-0.108 1.801-0.311 1.443 2.332 3.644 4.019 6.199 4.606v7.008h-2c-2.209 0-4 2.024-4 4.521h16c0-2.497-1.791-4.521-4-4.521h-2v-7.008c2.555-0.587 4.756-2.274 6.199-4.606 0.568 0.202 1.173 0.311 1.801 0.311 3.314 0 6-3.036 6-6.782v-4.521h-6zM6 13.14c-1.999 0-3.625-1.838-3.625-4.097v-2.261h3.625v2.261c0 1.42 0.232 2.777 0.655 4.030-0.213 0.044-0.431 0.068-0.655 0.068zM29.625 9.042c0 2.259-1.626 4.097-3.625 4.097-0.224 0-0.442-0.024-0.655-0.068 0.423-1.251 0.655-2.61 0.655-4.029v-2.261h3.625v2.261z"></path>
</symbol>
<symbol id="icon-steam" viewBox="0 0 32 32">
<path fill="#61a568" style="fill: var(--color1, #61a568)" d="M9.498 26.125c0.848 0 1.681-0.41 2.187-1.169 0.804-1.206 0.478-2.836-0.728-3.64l-2.065-1.377c0.353-0.096 0.725-0.149 1.109-0.149 2.325 0 4.209 1.884 4.209 4.209s-1.885 4.209-4.209 4.209c-2.263 0-4.108-1.785-4.205-4.024l2.249 1.499c0.448 0.298 0.953 0.441 1.454 0.441l-0.001 0.001zM26.667 0c2.934 0 5.333 2.4 5.333 5.334v21.332c0 2.936-2.399 5.334-5.333 5.334h-21.333c-2.934 0-5.334-2.398-5.334-5.334v-6.345l3.792 2.528c-0.364 1.974 0.217 4.088 1.744 5.615 2.466 2.466 6.463 2.466 8.929 0 1.515-1.515 2.098-3.607 1.752-5.568l7.783-6.968c1.445-0.207 2.838-0.867 3.95-1.979 2.734-2.734 2.734-7.166 0-9.899s-7.166-2.734-9.9 0c-1.112 1.112-1.771 2.505-1.979 3.95l-6.397 9.695c-0.995 0.051-1.981 0.336-2.866 0.856l-6.808-4.539v-8.678c0-2.934 2.4-5.334 5.334-5.334h21.333zM28 9c0-2.761-2.239-5-5-5s-5 2.239-5 5c0 2.761 2.239 5 5 5s5-2.239 5-5zM20 9c0-1.657 1.343-3 3-3s3 1.343 3 3c0 1.657-1.343 3-3 3s-3-1.343-3-3z"></path>
</symbol>
</defs>
</svg>
